<svg width="23" height="23" viewBox="0 0 23 23" fill="none" xmlns="http://www.w3.org/2000/svg">
<path fill-rule="evenodd" clip-rule="evenodd" d="M21.6058 4.28163C22.4033 3.4843 22.4033 2.1916 21.6058 1.39426C20.8085 0.596952 19.5157 0.596952 18.7185 1.39426L11.5002 8.61268L4.28174 1.39426C3.4844 0.596952 2.1917 0.596952 1.39437 1.39426C0.597059 2.1916 0.597059 3.4843 1.39437 4.28163L8.61283 11.5L1.39437 18.7183C0.597059 19.5158 0.597059 20.8084 1.39437 21.6056C2.1917 22.4031 3.4844 22.4031 4.28174 21.6056L11.5002 14.3873L18.7185 21.6056C19.5157 22.4031 20.8085 22.4031 21.6058 21.6056C22.4033 20.8084 22.4033 19.5158 21.6058 18.7183L14.3875 11.5L21.6058 4.28163Z" fill="#F8D985"/>
</svg>
