<svg width="34" height="34" viewBox="0 0 34 34" fill="none" xmlns="http://www.w3.org/2000/svg">
<path fill-rule="evenodd" clip-rule="evenodd" d="M26.9832 3.1875C26.9611 3.1875 26.9389 3.1875 26.9166 3.1875H7.01671C6.07193 3.18746 5.26415 3.18742 4.61858 3.26885C3.9339 3.35522 3.27218 3.54916 2.72874 4.05909C2.17554 4.57802 1.95581 5.22546 1.85934 5.89907C1.77065 6.51786 1.77065 7.28729 1.77079 8.16507V9.26517C1.77079 9.95723 1.77079 10.5555 1.82236 11.0544C1.87803 11.5913 1.99959 12.0949 2.29142 12.5785C2.58099 13.0584 2.97099 13.4068 3.42064 13.7191C3.84409 14.0132 4.38525 14.3178 5.02162 14.6761L9.19002 17.0225C10.1389 17.5568 10.4693 17.7491 10.6898 17.9405C11.1964 18.3804 11.4866 18.8683 11.6229 19.4797C11.6811 19.7411 11.6875 20.0702 11.6875 21.0699V24.9404C11.6873 26.2171 11.6873 27.3012 11.8186 28.1344C11.9585 29.0206 12.2827 29.8703 13.1327 30.402C13.9635 30.9216 14.8785 30.8738 15.7677 30.6626C16.6241 30.4593 17.6795 30.0467 18.9459 29.5515L19.069 29.5035C19.6622 29.2716 20.1816 29.0686 20.5928 28.8562C21.0348 28.628 21.4452 28.3441 21.7592 27.9022C22.0767 27.4554 22.204 26.9762 22.2608 26.4864C22.3125 26.0398 22.3125 25.5037 22.3125 24.9059V21.0699C22.3125 20.0702 22.3188 19.7411 22.377 19.4797C22.5133 18.8683 22.8034 18.3804 23.31 17.9405C23.5306 17.7491 23.861 17.5568 24.8098 17.0225L28.9783 14.6761C29.6147 14.3178 30.1558 14.0132 30.5793 13.7191C31.0289 13.4068 31.4189 13.0584 31.7085 12.5785C32.0004 12.0949 32.1219 11.5913 32.1775 11.0544C32.2292 10.5555 32.2292 9.95723 32.2291 9.26517L32.2291 8.23744C32.2291 8.21323 32.2291 8.1891 32.2291 8.16506C32.2292 7.28728 32.2293 6.51786 32.1406 5.89907C32.044 5.22546 31.8243 4.57802 31.2712 4.05909C30.7277 3.54916 30.0659 3.35522 29.3813 3.26885C28.7357 3.18742 27.928 3.18746 26.9832 3.1875ZM29.1153 5.37714C29.588 5.43677 29.7383 5.53479 29.8172 5.60881C29.8865 5.67382 29.978 5.78829 30.0371 6.20051C30.1016 6.6506 30.1041 7.26563 30.1041 8.23744V9.21468C30.1041 9.97148 30.1028 10.4589 30.0638 10.8354C30.0275 11.1861 29.9651 11.3547 29.8892 11.4805C29.811 11.61 29.6812 11.7555 29.367 11.9738C29.0359 12.2038 28.5835 12.4597 27.8942 12.8477L23.7674 15.1708C23.7288 15.1926 23.6907 15.214 23.6532 15.2351C22.8617 15.6804 22.3227 15.9837 21.9169 16.3359C21.0792 17.0632 20.5417 17.9466 20.303 19.0173C20.1869 19.5377 20.1871 20.1211 20.1874 20.9447C20.1874 20.9858 20.1875 21.0276 20.1875 21.0699V24.8517C20.1875 25.5207 20.1858 25.9321 20.1499 26.2418C20.1174 26.5218 20.0663 26.6161 20.0269 26.6714C19.984 26.7318 19.8991 26.8229 19.618 26.9681C19.3171 27.1235 18.9024 27.287 18.2478 27.5428C16.8863 28.0751 15.9706 28.4304 15.2767 28.5951C14.5987 28.7562 14.3753 28.6728 14.2597 28.6004C14.1634 28.5402 14.0146 28.4179 13.9177 27.8035C13.8156 27.1555 13.8125 26.2415 13.8125 24.8517V21.0699C13.8125 21.0276 13.8125 20.9858 13.8125 20.9447C13.8127 20.1211 13.813 19.5377 13.697 19.0173C13.4583 17.9466 12.9208 17.0632 12.083 16.3359C11.6773 15.9837 11.1382 15.6804 10.3467 15.2351C10.3092 15.214 10.2711 15.1926 10.2324 15.1708L6.10565 12.8477C5.4163 12.4597 4.96396 12.2038 4.63288 11.9738C4.31867 11.7555 4.1889 11.61 4.1107 11.4805C4.03477 11.3547 3.97243 11.1861 3.93617 10.8354C3.89707 10.4589 3.89579 9.97148 3.89579 9.21468V8.23744C3.89579 7.26563 3.89834 6.6506 3.9628 6.20051C4.02188 5.78829 4.11339 5.67382 4.18267 5.60881C4.26158 5.53479 4.41189 5.43677 4.88449 5.37714C5.38117 5.3145 6.05338 5.3125 7.08329 5.3125H26.9166C27.9466 5.3125 28.6187 5.3145 29.1153 5.37714Z" fill="#F8D985"/>
</svg>
