<svg width="22" height="22" viewBox="0 0 22 22" fill="none" xmlns="http://www.w3.org/2000/svg">
<path d="M13.5297 2.88658C12.5373 0.37114 8.97748 0.37114 7.98505 2.88658L7.0179 5.3392C6.71524 6.10719 6.10745 6.71508 5.3394 7.01798L2.88669 7.98527C0.371103 8.97737 0.371103 12.5374 2.88669 13.5295L5.3394 14.4967C6.10745 14.7995 6.71524 15.4075 7.0179 16.1758L7.98505 18.6281C8.97748 21.1436 12.5373 21.1436 13.5297 18.6281L14.4969 16.1758C14.7995 15.4075 15.4073 14.7995 16.1754 14.4967L18.6281 13.5295C21.1437 12.5374 21.1437 8.97737 18.6281 7.98527L16.1754 7.01798C15.4073 6.71508 14.7995 6.10719 14.4969 5.3392L13.5297 2.88658Z" stroke="#DE376F"/>
</svg>
