<svg width="631" height="196" viewBox="0 0 631 196" fill="none" xmlns="http://www.w3.org/2000/svg">
<path d="M61.1436 111.604C56.6175 100.132 40.3825 100.132 35.8564 111.604L31.4456 122.79C30.0652 126.292 27.2933 129.064 23.7905 130.446L12.6045 134.857C1.13182 139.382 1.13182 155.618 12.6045 160.142L23.7905 164.554C27.2933 165.935 30.0652 168.707 31.4456 172.211L35.8564 183.396C40.3825 194.868 56.6175 194.868 61.1436 183.396L65.5544 172.211C66.9348 168.707 69.7067 165.935 73.2095 164.554L84.3955 160.142C95.8682 155.618 95.8682 139.382 84.3955 134.857L73.2095 130.446C69.7067 129.064 66.9348 126.292 65.5544 122.79L61.1436 111.604Z" stroke="#F8D985" stroke-width="8"/>
<path d="M570.999 21.5377C562.482 17.8403 553.84 26.4825 557.538 34.9986L561.144 43.3008C562.274 45.9 562.274 48.8513 561.145 51.4513L557.539 59.754C553.84 68.2697 562.483 76.9123 570.998 73.2137L579.301 69.6074C581.9 68.4778 584.852 68.4784 587.452 69.6088L595.754 73.2143C604.27 76.9121 612.912 68.2699 609.214 59.7535L605.609 51.4521C604.478 48.8521 604.478 45.9005 605.607 43.3008L609.214 34.9982C612.912 26.4826 604.27 17.84 595.754 21.5385L587.451 25.1447C584.851 26.274 581.9 26.2737 579.301 25.144L570.999 21.5377Z" stroke="#F8D985" stroke-width="8"/>
</svg>
