<svg width="859" height="858" viewBox="0 0 859 858" fill="none" xmlns="http://www.w3.org/2000/svg">
<path d="M429.695 851.332C662.897 851.332 851.945 662.284 851.945 429.082C851.945 195.88 662.897 6.83209 429.695 6.83209C196.493 6.83209 7.44495 195.88 7.44495 429.082C7.44495 662.284 196.493 851.332 429.695 851.332Z" fill="#0B2C4F" stroke="#FDFFC7" stroke-width="13.3334" stroke-miterlimit="22.9256"/>
<path d="M414.755 780.969C611.895 780.969 771.709 621.155 771.709 424.015C771.709 226.875 611.895 67.0611 414.755 67.0611C217.615 67.0611 57.8015 226.875 57.8015 424.015C57.8015 621.155 217.615 780.969 414.755 780.969Z" fill="#FFE96E"/>
<path d="M489.951 685.4C667.876 685.4 812.113 541.163 812.113 363.238C812.113 185.313 667.876 41.0761 489.951 41.0761C312.026 41.0761 167.789 185.313 167.789 363.238C167.789 541.163 312.026 685.4 489.951 685.4Z" fill="#0B2C4F"/>
<path d="M149.967 324.6V483.445H239.588C246.734 483.445 252.192 485.182 255.964 488.656C259.834 492.129 261.77 496.496 261.77 501.756C261.77 507.116 259.884 511.483 256.112 514.857C252.341 518.132 246.833 519.77 239.588 519.77H132.847C123.22 519.77 116.273 517.636 112.005 513.368C107.837 509.101 105.753 502.203 105.753 492.675V324.6C105.753 315.668 107.738 308.968 111.707 304.502C115.777 300.036 121.086 297.803 127.637 297.803C134.286 297.803 139.646 300.036 143.715 304.502C147.883 308.869 149.967 315.568 149.967 324.6Z" fill="#0B2C4F"/>
<path d="M274.476 508.145V395.091C274.476 389.218 275.814 384.813 278.49 381.877C281.165 378.94 284.624 377.472 288.865 377.472C293.237 377.472 296.761 378.94 299.437 381.877C302.177 384.748 303.548 389.153 303.548 395.091V508.145C303.548 514.084 302.177 518.521 299.437 521.457C296.761 524.394 293.237 525.862 288.865 525.862C284.689 525.862 281.23 524.394 278.49 521.457C275.814 518.456 274.476 514.018 274.476 508.145ZM467.208 465.077V492.582C467.208 496.236 466.849 499.173 466.131 501.391C465.413 503.545 464.075 505.502 462.118 507.264C460.225 509.026 457.778 510.723 454.776 512.354C446.098 517.053 437.745 520.479 429.718 522.632C421.692 524.785 412.948 525.862 403.486 525.862C392.458 525.862 382.409 524.165 373.338 520.772C364.268 517.379 356.535 512.452 350.14 505.992C343.745 499.532 338.818 491.701 335.36 482.5C331.966 473.299 330.27 463.021 330.27 451.667C330.27 440.508 331.934 430.296 335.262 421.03C338.59 411.763 343.484 403.9 349.944 397.44C356.404 390.98 364.268 386.053 373.534 382.66C382.8 379.201 393.306 377.472 405.052 377.472C414.71 377.472 423.258 378.777 430.697 381.387C438.136 383.932 444.173 387.162 448.806 391.078C453.439 394.993 456.93 399.137 459.279 403.509C461.628 407.881 462.803 411.763 462.803 415.157C462.803 418.811 461.433 421.943 458.692 424.553C456.016 427.098 452.786 428.371 449.001 428.371C446.913 428.371 444.89 427.881 442.933 426.903C441.04 425.924 439.442 424.553 438.136 422.792C434.547 417.18 431.513 412.938 429.033 410.067C426.554 407.196 423.193 404.781 418.951 402.823C414.775 400.866 409.424 399.887 402.899 399.887C396.177 399.887 390.174 401.062 384.888 403.411C379.603 405.695 375.067 409.055 371.282 413.493C367.563 417.865 364.692 423.248 362.669 429.643C360.711 436.038 359.732 443.119 359.732 450.884C359.732 467.72 363.582 480.673 371.282 489.743C379.048 498.814 389.848 503.349 403.682 503.349C410.403 503.349 416.7 502.468 422.573 500.706C428.511 498.944 434.515 496.432 440.583 493.169V469.873H418.07C412.654 469.873 408.543 469.057 405.737 467.426C402.997 465.795 401.626 463.021 401.626 459.106C401.626 455.909 402.768 453.266 405.052 451.178C407.401 449.089 410.566 448.045 414.547 448.045H447.533C451.579 448.045 455.005 448.404 457.811 449.122C460.617 449.84 462.868 451.439 464.565 453.918C466.327 456.398 467.208 460.118 467.208 465.077ZM524.175 395.091V436.202H586.918V395.091C586.918 389.218 588.223 384.813 590.834 381.877C593.509 378.94 597 377.472 601.307 377.472C605.679 377.472 609.203 378.94 611.878 381.877C614.619 384.748 615.989 389.153 615.989 395.091V508.145C615.989 514.084 614.619 518.521 611.878 521.457C609.138 524.394 605.614 525.862 601.307 525.862C596.935 525.862 593.444 524.394 590.834 521.457C588.223 518.456 586.918 514.018 586.918 508.145V459.889H524.175V508.145C524.175 514.084 522.805 518.521 520.064 521.457C517.324 524.394 513.8 525.862 509.493 525.862C505.121 525.862 501.63 524.394 499.019 521.457C496.409 518.456 495.104 514.018 495.104 508.145V395.091C495.104 389.218 496.377 384.813 498.922 381.877C501.532 378.94 505.056 377.472 509.493 377.472C513.865 377.472 517.389 378.94 520.064 381.877C522.805 384.748 524.175 389.153 524.175 395.091ZM740.398 403.9H708.684V508.145C708.684 514.149 707.347 518.619 704.671 521.555C701.996 524.426 698.537 525.862 694.296 525.862C689.989 525.862 686.465 524.394 683.724 521.457C681.049 518.521 679.711 514.084 679.711 508.145V403.9H647.997C643.038 403.9 639.351 402.823 636.936 400.67C634.522 398.451 633.315 395.548 633.315 391.959C633.315 388.239 634.554 385.302 637.034 383.149C639.579 380.996 643.233 379.919 647.997 379.919H740.398C745.423 379.919 749.143 381.028 751.557 383.247C754.037 385.466 755.277 388.369 755.277 391.959C755.277 395.548 754.037 398.451 751.557 400.67C749.077 402.823 745.358 403.9 740.398 403.9Z" fill="#FDFFC7"/>
<path d="M501.769 267.918H470.61L467.222 275.662C465.608 279.454 464.802 282.58 464.802 285.04C464.802 287.138 465.265 288.953 466.193 290.485C467.161 291.978 468.573 293.228 470.428 294.236C472.324 295.205 474.805 295.991 477.87 296.596V298.472H446.469V296.657C450.261 295.366 453.508 293.107 456.21 289.88C458.953 286.653 461.837 281.632 464.862 274.815L491.604 214.312H493.177L522.279 279.716C522.36 279.756 522.42 279.877 522.461 280.079C522.541 280.24 522.622 280.422 522.703 280.623C522.824 280.825 522.945 281.047 523.066 281.289L525.728 286.795C527.18 289.739 528.834 291.958 530.689 293.45C532.544 294.942 534.864 295.991 537.647 296.596V298.472H499.046V296.596C502.313 296.354 504.653 295.971 506.064 295.447C508.969 294.357 510.421 292.462 510.421 289.759C510.421 288.428 509.775 286.25 508.485 283.225L501.769 267.918ZM500.619 265.377L486.038 232.524L471.699 265.377H500.619ZM487.309 229.922L510.602 282.378L511.207 283.709C512.458 286.411 513.083 288.388 513.083 289.638C513.083 291.373 512.095 293.289 510.118 295.386H526.091C524.276 293.692 522.703 291.756 521.372 289.578C520.041 287.359 518.488 284.294 516.713 280.381L490.757 221.996L487.309 229.922ZM466.133 295.386C464.761 293.732 463.793 292.26 463.229 290.969C462.664 289.638 462.382 288.206 462.382 286.674C462.382 285.988 462.402 285.443 462.442 285.04C461.192 287.46 459.961 289.416 458.751 290.909C457.541 292.361 455.908 293.853 453.851 295.386H466.133ZM567.959 255.152V280.018C567.959 283.487 568.16 286.069 568.564 287.763C569.007 289.457 569.834 290.969 571.044 292.3C573.182 294.519 576.369 295.951 580.604 296.596V298.472H542.124V296.596C546.48 295.87 549.647 294.196 551.623 291.574C553.156 289.638 553.922 285.786 553.922 280.018V234.339C553.922 230.668 553.72 228.006 553.317 226.352C552.914 224.699 552.168 223.287 551.078 222.117C549.142 219.98 546.158 218.527 542.124 217.761V215.885C542.689 215.926 543.193 215.946 543.637 215.946L548.961 216.249C551.099 216.37 553.579 216.43 556.403 216.43C560.88 216.43 564.934 216.249 568.564 215.885L577.034 215.159C579.696 214.917 582.318 214.796 584.899 214.796C589.659 214.796 593.914 215.28 597.666 216.249C601.417 217.217 604.583 218.608 607.164 220.423C609.746 222.238 611.743 224.477 613.154 227.139C614.566 229.761 615.272 232.705 615.272 235.972C615.272 241.418 613.396 245.673 609.645 248.738C605.934 251.764 600.429 253.538 593.128 254.063C597.645 255.837 601.457 258.278 604.563 261.384C607.709 264.449 611.44 269.471 615.756 276.449C620.636 284.274 624.488 289.719 627.312 292.784C630.135 295.85 633.261 298.028 636.69 299.319V301.013C632.293 300.932 628.542 300.529 625.436 299.803C622.371 299.077 619.305 297.786 616.24 295.931C612.408 293.551 608.798 290.344 605.41 286.311C602.022 282.277 599.057 277.659 596.516 272.456L593.309 265.74C591.777 262.594 590.425 260.315 589.256 258.903C588.086 257.451 586.694 256.463 585.081 255.938C583.468 255.414 581.269 255.152 578.486 255.152H567.959ZM567.959 252.732H578.789C585.041 252.732 589.538 252.026 592.281 250.614C594.741 249.364 596.657 247.428 598.029 244.806C599.44 242.144 600.146 239.098 600.146 235.67C600.146 232.12 599.319 228.934 597.666 226.11C596.052 223.287 593.773 221.109 590.829 219.576C587.925 218.003 584.597 217.217 580.846 217.217C575.28 217.217 571.528 218.951 569.592 222.42C568.503 224.396 567.959 227.502 567.959 231.737V252.732ZM591.555 252.974C594.257 252.369 596.718 251.501 598.936 250.372C601.195 249.243 603.05 247.952 604.502 246.5C605.954 245.048 607.064 243.394 607.83 241.539C608.637 239.683 609.04 237.747 609.04 235.73C609.04 231.334 607.467 227.502 604.321 224.235C601.175 220.968 597.02 218.87 591.857 217.943C594.156 219.193 596.092 220.685 597.666 222.42C599.239 224.154 600.429 226.131 601.235 228.349C602.042 230.527 602.445 232.887 602.445 235.428C602.445 239.824 601.578 243.434 599.844 246.258C598.109 249.041 595.346 251.28 591.555 252.974ZM629.732 298.532C627.594 297.362 625.86 296.294 624.529 295.326C623.198 294.357 621.645 293.006 619.87 291.272C617.773 289.013 616.119 287.057 614.909 285.403C613.739 283.749 611.783 280.664 609.04 276.146C606.459 271.83 604.119 268.341 602.022 265.679C599.965 263.017 597.887 260.879 595.79 259.266C593.693 257.653 591.373 256.321 588.832 255.273C590.446 256.926 591.777 258.56 592.825 260.173C593.39 261.061 594.398 262.936 595.85 265.8C596.294 266.647 596.718 267.474 597.121 268.281C597.565 269.088 597.988 269.935 598.392 270.822C602.707 279.252 607.346 285.665 612.307 290.062C617.268 294.418 623.077 297.241 629.732 298.532ZM550.594 295.386H568.261L565.902 293.631C564.53 292.623 563.643 291.816 563.24 291.211C562.877 290.606 562.695 289.699 562.695 288.489C562.695 287.843 562.675 287.42 562.634 287.218C562.634 286.976 562.634 286.734 562.634 286.492V285.464V228.894V227.865C562.634 227.623 562.634 227.381 562.634 227.139C562.675 226.897 562.695 226.473 562.695 225.868C562.695 224.739 562.856 223.872 563.179 223.267C563.542 222.662 564.308 221.916 565.478 221.028L565.902 220.726L569.29 218.124L567.112 218.245C563.441 218.487 560.134 218.608 557.189 218.608C555.374 218.608 552.894 218.548 549.747 218.427L552.954 220.726C554.285 221.613 555.152 222.4 555.556 223.085C555.959 223.731 556.161 224.658 556.161 225.868C556.201 226.554 556.221 227.22 556.221 227.865V228.894V285.464V286.492C556.221 287.138 556.201 287.803 556.161 288.489C556.161 289.739 555.979 290.667 555.616 291.272C555.253 291.837 554.366 292.623 552.954 293.631L550.594 295.386ZM717.884 215.885L719.76 238.392H717.824C716.614 234.238 714.96 230.648 712.863 227.623C710.806 224.598 708.386 222.279 705.602 220.665C702.86 219.011 699.976 218.185 696.95 218.185C694.571 218.185 692.493 218.689 690.719 219.697C688.984 220.665 687.694 222.016 686.847 223.751C686.04 225.405 685.636 228.067 685.636 231.737V280.018C685.636 283.608 685.879 286.25 686.363 287.944C686.847 289.598 687.774 291.05 689.146 292.3C691.606 294.519 695.196 295.951 699.915 296.596V298.472H657.261V296.596C662.504 295.87 666.336 294.216 668.756 291.635C669.845 290.465 670.591 289.033 670.995 287.339C671.398 285.645 671.6 283.205 671.6 280.018V231.737C671.6 227.744 671.055 224.84 669.966 223.025C669.119 221.532 667.849 220.363 666.155 219.516C664.461 218.628 662.504 218.185 660.286 218.185C655.728 218.185 651.553 220 647.762 223.63C644.011 227.22 641.207 232.141 639.352 238.392H637.476L639.352 215.885H717.884ZM713.286 218.124H704.513C706.651 219.011 708.446 220.04 709.898 221.21C711.35 222.339 712.863 223.993 714.436 226.171L713.286 218.124ZM668.212 295.386H685.939L683.579 293.631C682.127 292.542 681.22 291.716 680.857 291.151C680.494 290.586 680.312 289.699 680.312 288.489V286.492C680.312 286.169 680.292 285.948 680.252 285.827C680.252 285.706 680.252 285.585 680.252 285.464V228.894C680.252 228.773 680.252 228.652 680.252 228.531C680.292 228.41 680.312 228.188 680.312 227.865V225.868C680.312 224.658 680.534 223.731 680.978 223.085C681.421 222.4 682.289 221.613 683.579 220.726L687.028 218.185H668.393L671.237 220.726C672.245 221.613 672.931 222.44 673.294 223.206C673.657 223.932 673.838 224.82 673.838 225.868V227.865C673.879 228.228 673.899 228.571 673.899 228.894V285.464C673.899 285.786 673.879 286.129 673.838 286.492V288.489C673.838 289.699 673.637 290.606 673.233 291.211C672.87 291.816 672.003 292.623 670.632 293.631L668.212 295.386ZM641.349 218.124L640.501 227.018C642.236 224.477 643.708 222.621 644.918 221.452C646.128 220.282 647.701 219.173 649.637 218.124H641.349Z" fill="#DBDBC3"/>
<path d="M346.084 74.9048L346.434 232.194" stroke="#496582" stroke-width="0.755906" stroke-miterlimit="22.9256"/>
<path fill-rule="evenodd" clip-rule="evenodd" d="M408.178 260.216C408.371 260.214 378.024 260.429 362.768 275.903C347.51 291.378 347.343 322.111 347.26 322.002C347.176 321.893 347.176 290.941 331.702 275.684C316.228 260.428 285.278 260.865 285.171 260.975C285.061 261.086 315.792 260.869 331.05 245.394C346.306 229.92 346.089 199.19 346.089 199.19C346.089 199.19 346.306 229.92 361.781 245.177C377.255 260.434 407.986 260.217 408.178 260.216Z" fill="#F5FAB1" stroke="#496582" stroke-width="0.755906" stroke-miterlimit="22.9256"/>
</svg>
