<svg width="32" height="32" viewBox="0 0 32 32" fill="none" xmlns="http://www.w3.org/2000/svg">
<mask id="mask0_27_60" style="mask-type:alpha" maskUnits="userSpaceOnUse" x="0" y="0" width="32" height="32">
<rect width="32" height="32" transform="matrix(-1 0 0 1 32 0)" fill="#D9D9D9"/>
</mask>
<g mask="url(#mask0_27_60)">
<path d="M22.6666 26.6667C23.4 26.6667 24.0277 26.4056 24.55 25.8833C25.0722 25.3611 25.3333 24.7333 25.3333 24V11.6667L30.6666 5.33333H5.33329C4.59996 5.33333 3.97218 5.59444 3.44996 6.11666C2.92774 6.63888 2.66663 7.26666 2.66663 7.99999V24C2.66663 24.7333 2.92774 25.3611 3.44996 25.8833C3.97218 26.4056 4.59996 26.6667 5.33329 26.6667H22.6666ZM22.6666 7.99999V24H5.33329V7.99999H22.6666ZM14 23.3333L12.1333 21.4667L13.6 20H7.99996V17.3333H20L14 23.3333ZM20 14.6667H7.99996L14 8.66666L15.8666 10.5333L14.4 12H20V14.6667Z" fill="#F8D985"/>
</g>
</svg>
