<svg width="103" height="91" viewBox="0 0 103 91" fill="none" xmlns="http://www.w3.org/2000/svg">
<path d="M52 43.7143C57.9969 43.7143 62.8571 38.854 62.8571 32.8571C62.8571 26.8603 57.9969 22 52 22C46.0031 22 41.1429 26.8603 41.1429 32.8571C41.1429 38.854 46.0031 43.7143 52 43.7143ZM59.6 46.4286H58.4022C58.2581 46.4286 58.1159 46.4602 57.9841 46.5184C56.153 47.3277 54.1278 47.7857 52 47.7857C49.8716 47.7857 47.8538 47.3275 46.0153 46.5178C45.8839 46.4599 45.7422 46.4286 45.5987 46.4286H44.4C38.1062 46.4286 33 51.5348 33 57.8286V61.3571C33 63.6049 34.8237 65.4286 37.0714 65.4286H66.9286C69.1763 65.4286 71 63.6049 71 61.3571V57.8286C71 51.5348 65.8937 46.4286 59.6 46.4286Z" fill="#DA497A"/>
<path d="M93.3662 9.69143C90.9472 7.25302 88.075 5.31871 84.9139 3.99898C81.7527 2.67926 78.3644 2 74.9426 2C71.5208 2 68.1325 2.67926 64.9714 3.99898C61.8102 5.31871 58.9381 7.25302 56.519 9.69143L51.4987 14.7496L46.4784 9.69143C41.5922 4.76833 34.965 2.00255 28.0549 2.00255C21.1447 2.00255 14.5175 4.76833 9.63129 9.69143C4.74506 14.6145 2 21.2917 2 28.254C2 35.2163 4.74506 41.8935 9.63129 46.8166L14.6516 51.8748L51.4987 89L88.3459 51.8748L93.3662 46.8166C95.7863 44.3794 97.7061 41.4855 99.016 38.3005C100.326 35.1155 101 31.7016 101 28.254C101 24.8064 100.326 21.3926 99.016 18.2075C97.7061 15.0225 95.7863 12.1287 93.3662 9.69143Z" stroke="black" stroke-width="3.96414" stroke-linecap="round" stroke-linejoin="round"/>
</svg>
