<svg width="104" height="96" viewBox="0 0 104 96" fill="none" xmlns="http://www.w3.org/2000/svg">
<path d="M51.5 58.7143C58.6016 58.7143 64.3571 52.9587 64.3571 45.8571C64.3571 38.7556 58.6016 33 51.5 33C44.3984 33 38.6429 38.7556 38.6429 45.8571C38.6429 52.9587 44.3984 58.7143 51.5 58.7143ZM60.5 61.9286H59.0413C58.8972 61.9286 58.7549 61.9601 58.6232 62.0187C56.4452 62.9872 54.0341 63.5357 51.5 63.5357C48.9654 63.5357 46.5632 62.987 44.3761 62.018C44.2449 61.9599 44.1032 61.9286 43.9596 61.9286H42.5C35.0469 61.9286 29 67.9754 29 75.4286V79.6071C29 82.269 31.1596 84.4286 33.8214 84.4286H69.1786C71.8404 84.4286 74 82.269 74 79.6071V75.4286C74 67.9754 67.9531 61.9286 60.5 61.9286Z" fill="#DA497A"/>
<path d="M52 6L5 93.5H99L52 6Z" stroke="#B37229" stroke-width="5"/>
</svg>
