<svg width="17" height="19" viewBox="0 0 17 19" fill="none" xmlns="http://www.w3.org/2000/svg">
<path d="M0.116882 1.05582V17.9442C0.116827 18.132 0.169601 18.3164 0.269762 18.4784C0.369922 18.6404 0.51384 18.7742 0.686668 18.8658C0.859495 18.9574 1.05497 19.0037 1.25293 18.9998C1.45089 18.9958 1.64416 18.9419 1.8128 18.8435L16.2793 10.3993C16.4413 10.3049 16.5751 10.1726 16.668 10.0152C16.7608 9.85775 16.8095 9.68038 16.8095 9.5C16.8095 9.31962 16.7608 9.14225 16.668 8.98481C16.5751 8.82738 16.4413 8.69513 16.2793 8.60069L1.8128 0.156515C1.64416 0.0581028 1.45089 0.00415256 1.25293 0.000230269C1.05497 -0.00369202 0.859495 0.0425557 0.686668 0.134202C0.51384 0.225848 0.369922 0.359573 0.269762 0.521581C0.169601 0.683589 0.116827 0.868011 0.116882 1.05582Z" fill="white"/>
</svg>
